# xmcd
#
# Track frame offsets: 
#        150
#        29454
#        59404
#        83084
#        97997
#        123169
#        151214
#        168615
#
# Disc length: 2572 seconds
#
# Revision: 3
# Processed by: cddbd v1.5.2PL0 Copyright (c) Steve Scherf et al.
# Submitted via: ExactAudioCopy v0.95b4
#
DISCID=5b0a0a08
DTITLE=Ben Webster and Joe Zawinul - Soulmates
DYEAR=1963
DGENRE=Jazz
TTITLE0=Too Late Now
TTITLE1=Soulmates
TTITLE2=Come Sunday
TTITLE3=The Governor
TTITLE4=Frog Legs
TTITLE5=Trav'lin' Light
TTITLE6=Like Someone In Love
TTITLE7=Evol Deklaw Ni
EXTD=with Ben Webster, ts,\nJoe Zawinul, kb,\nSam Jones, b,\nRichard D
EXTD=avis, b,\nPhilly Joe Jones, dr YEAR: 1963
EXTT0=
EXTT1=
EXTT2=
EXTT3=
EXTT4=
EXTT5=
EXTT6=
EXTT7=
PLAYORDER=
